<?xml version="1.0" encoding="utf-8"?>
<!-- Generator: Adobe Illustrator 19.0.0, SVG Export Plug-In . SVG Version: 6.00 Build 0)  -->
<svg version="1.1" id="Camada_1" xmlns="http://www.w3.org/2000/svg" xmlns:xlink="http://www.w3.org/1999/xlink" x="0px" y="0px"
	 viewBox="0 0 448.5 445.5" style="enable-background:new 0 0 448.5 445.5;" xml:space="preserve">
<style type="text/css">
	.st0{fill:#0D71BA;}
	.st1{clip-path:url(#SVGID_2_);fill:#0D71BA;}
</style>
<g>
	<path class="st0" d="M317,205.1c1.2,0.9,2.7,1.4,4.1,1.4c2.1,0,4.1-0.9,5.4-2.7c5.5-7.2,8.4-15.7,8.4-24.8c0-3.8-3-6.8-6.8-6.8
		c-3.8,0-6.8,3.1-6.8,6.8c0,6-1.9,11.7-5.6,16.5C313.4,198.6,314,202.9,317,205.1L317,205.1z M317,205.1"/>
	<path class="st0" d="M294,247.3c37.6,0,68.3-30.6,68.3-68.3c0-50.3-61.1-105.2-63.7-107.5c-2.6-2.3-6.5-2.3-9.1,0
		c-2.6,2.3-63.7,57.2-63.7,107.5C225.7,216.7,256.3,247.3,294,247.3L294,247.3z M294,86c13.9,13.4,54.6,56.1,54.6,93
		c0,30.1-24.5,54.6-54.6,54.6c-30.1,0-54.6-24.5-54.6-54.6C239.4,142.2,280.1,99.5,294,86L294,86z M294,86"/>
	<g>
		<defs>
			<rect id="SVGID_1_" x="20.9" y="14.9" width="409.9" height="410.9"/>
		</defs>
		<clipPath id="SVGID_2_">
			<use xlink:href="#SVGID_1_"  style="overflow:visible;"/>
		</clipPath>
		<path class="st1" d="M389.5,97.1c0.5,0,1.1-0.1,1.6-0.2c4.7-1.1,10.6-6.2,11.9-12c0.8-3.7-1.5-7.4-5.2-8.3
			c-3.7-0.8-7.3,1.4-8.1,5.1c-0.2,0.6-1.3,1.6-2,1.9c-3.6,0.9-5.8,4.6-4.9,8.2C383.6,95,386.4,97.1,389.5,97.1L389.5,97.1z
			 M389.5,97.1"/>
		<path class="st1" d="M389.5,124.4c22.6,0,41-18.4,41-41c0-37-35.2-65.6-36.7-66.8c-2.5-2-6-2-8.5,0c-1.5,1.2-36.7,29.8-36.7,66.8
			C348.6,106.1,366.9,124.4,389.5,124.4L389.5,124.4z M389.5,31.2c8.6,8.2,27.3,28.8,27.3,52.3c0,15.1-12.2,27.3-27.3,27.3
			c-15.1,0-27.3-12.2-27.3-27.3C362.2,60,380.9,39.4,389.5,31.2L389.5,31.2z M389.5,31.2"/>
		<path class="st1" d="M198.4,97.1c0.5,0,1.1-0.1,1.6-0.2c4.7-1.1,10.6-6.2,11.9-12c0.8-3.7-1.5-7.4-5.2-8.3
			c-3.7-0.8-7.3,1.4-8.1,5.1c-0.2,0.6-1.3,1.6-2,1.9c-3.6,0.9-5.8,4.6-4.9,8.2C192.5,95,195.3,97.1,198.4,97.1L198.4,97.1z
			 M198.4,97.1"/>
		<path class="st1" d="M198.4,124.4c22.6,0,41-18.4,41-41c0-37-35.2-65.6-36.7-66.8c-2.5-2-6-2-8.5,0c-1.5,1.2-36.7,29.8-36.7,66.8
			C157.4,106.1,175.8,124.4,198.4,124.4L198.4,124.4z M198.4,31.2c8.6,8.2,27.3,28.8,27.3,52.3c0,15.1-12.2,27.3-27.3,27.3
			c-15.1,0-27.3-12.2-27.3-27.3C171.1,60,189.8,39.4,198.4,31.2L198.4,31.2z M198.4,31.2"/>
		<path class="st1" d="M426.8,301.9c-7.5-13.1-24.3-17.5-36.9-10.2L311.4,330c-12.2,6.1-24.5,6.1-51.6,6.1
			c-26.4,0-66.7-6.7-67.1-6.7c-3.7-0.6-7.2,1.9-7.8,5.6c-0.6,3.7,1.9,7.2,5.6,7.9c1.7,0.3,41.8,6.9,69.4,6.9c28.3,0,42.6,0,57.6-7.5
			l78.9-38.4c3.2-1.8,6.8-2.3,10.4-1.4c3.5,0.9,6.5,3.2,8.3,6.4c1.8,3.2,2.3,6.8,1.4,10.4c-0.9,3.5-3.2,6.5-6.6,8.4L317.5,385
			c-0.2,0.1-19.9,12.5-64.5,12.5c-38.7,0-98.5-32.9-99.4-33.4c-0.6-0.3-15.4-7.5-44-7.5c-3.8,0-6.8,3.1-6.8,6.8
			c0,3.8,3.1,6.8,6.8,6.8c24.8,0,37.6,6,37.7,6v0c2.6,1.4,63.5,35,105.7,35c49.3,0,71.1-14.2,71.9-14.7l92-57.2
			c6.3-3.6,10.8-9.5,12.7-16.6C431.5,315.6,430.5,308.3,426.8,301.9L426.8,301.9z M426.8,301.9"/>
	</g>
	<path class="st0" d="M55,380.4c0-5.6-4.6-10.2-10.2-10.2c-5.6,0-10.2,4.6-10.2,10.2c0,5.6,4.6,10.2,10.2,10.2
		C50.4,390.7,55,386.1,55,380.4L55,380.4z M55,380.4"/>
	<path class="st0" d="M68.7,233.7h-41c-3.8,0-6.8,3.1-6.8,6.8c0,3.8,3.1,6.8,6.8,6.8h41c3.8,0,6.8,3.1,6.8,6.8v150.2
		c0,3.8-3.1,6.8-6.8,6.8h-41c-3.8,0-6.8,3.1-6.8,6.8c0,3.8,3.1,6.8,6.8,6.8h41c11.3,0,20.5-9.2,20.5-20.5V254.2
		C89.2,242.9,80,233.7,68.7,233.7L68.7,233.7z M68.7,233.7"/>
	<path class="st0" d="M109.6,274.6h54.6c8,0,21.5,10.2,33.5,19.1c15,11.2,29.1,21.8,41.6,21.8h41c10.4,0,15.5,4.7,15.7,4.8
		c1.3,1.3,3.1,2,4.8,2c1.7,0,3.5-0.7,4.8-2c2.7-2.7,2.7-7,0-9.7c-0.9-0.9-9.3-8.8-25.3-8.8h-41c-8,0-21.5-10.2-33.4-19.1
		c-15-11.2-29.1-21.8-41.6-21.8h-54.6c-3.8,0-6.8,3.1-6.8,6.8C102.8,271.6,105.9,274.6,109.6,274.6L109.6,274.6z M109.6,274.6"/>
</g>
</svg>
