<?xml version="1.0" encoding="utf-8"?>
<!-- Generator: Adobe Illustrator 19.0.0, SVG Export Plug-In . SVG Version: 6.00 Build 0)  -->
<svg version="1.1" id="Camada_1" xmlns="http://www.w3.org/2000/svg" xmlns:xlink="http://www.w3.org/1999/xlink" x="0px" y="0px"
	 viewBox="0 0 168 224" style="enable-background:new 0 0 168 224;" xml:space="preserve">
<style type="text/css">
	.st0{fill:#3CAED6;}
	.st1{fill:#63BFDE;}
	.st2{fill:#369DC0;}
</style>
<g>
	<path class="st0" d="M168,140C168,95.2,91,7.7,84.7,0.7C84.7,0.7,0,93.8,0,140c0,46.2,37.8,84,84,84c2.8,0,6.3,0,9.1-0.7
		c0.7,0,1.4,0,2.1-0.7c2.1,0,4.2-0.7,6.3-0.7c0.7,0,1.4-0.7,2.8-0.7c2.1-0.7,4.2-0.7,6.3-1.4c0.7,0,1.4-0.7,2.1-0.7
		c2.1-0.7,4.2-1.4,6.3-2.1c0.7,0,1.4-0.7,1.4-0.7c2.1-0.7,4.2-2.1,6.3-3.5c0.7,0,0.7-0.7,1.4-0.7c2.1-1.4,4.2-2.8,6.3-4.2
		c0,0,0.7,0,0.7-0.7c2.1-1.4,4.2-3.5,6.3-4.9C157.5,186.2,168,164.5,168,140L168,140z M168,140"/>
	<path class="st1" d="M119,112c-7.7,0-14,6.3-14,14c0,7.7,6.3,14,14,14c7.7,0,14-6.3,14-14C133,118.3,126.7,112,119,112L119,112z
		 M119,112"/>
	<path class="st2" d="M91,217c-46.2,0-84-37.8-84-84C7,94.5,64.4,23.8,84.7,0.7L84,0C84,0,0,93.8,0,140c0,46.2,37.8,84,84,84
		c25.2,0,47.6-11.2,63-28C131.6,208.6,112.7,217,91,217L91,217z M91,217"/>
</g>
</svg>
